<?xml version="1.0" encoding="UTF-8" standalone="no"?><!DOCTYPE svg PUBLIC "-//W3C//DTD SVG 1.1//EN" "http://www.w3.org/Graphics/SVG/1.1/DTD/svg11.dtd"><svg width="100%" height="100%" viewBox="0 0 66667 18750" version="1.1" xmlns="http://www.w3.org/2000/svg" xmlns:xlink="http://www.w3.org/1999/xlink" xml:space="preserve" xmlns:serif="http://www.serif.com/" style="fill-rule:evenodd;clip-rule:evenodd;stroke-linecap:round;stroke-linejoin:round;stroke-miterlimit:1.5;"><g><path d="M49292.1,11800.4c-24.412,253.641 553.4,1417.41 1098.66,2133.57c545.262,716.166 1383.5,2742.59 1928.76,2994.87c545.263,252.287 2099.67,382.5 2530.99,219.733c431.325,-162.763 675.475,-506.721 626.646,-619.579c-48.829,-112.863 -423.188,-397.7 -870.792,-357.009c-447.604,40.692 -1237.01,-81.383 -1660.2,-317.391c-423.187,-236.009 -827.725,-1009.14 -1439.28,-1977.59c-611.554,-968.45 -1490.48,-2327.54 -1759.05,-2368.23c-268.562,-40.688 -431.325,37.979 -455.742,291.621Z" style="stroke:#000;stroke-width:17.38px;"/><path d="M54555.8,5784.04c-193.283,345.875 -233.975,681.579 264.492,1047.8c498.467,366.221 1566.61,1169.87 1556.44,1475.05c-10.175,305.183 793.475,295.012 905.375,111.904c111.904,-183.113 152.596,-767.75 -30.517,-877.258c-183.108,-109.505 30.517,114.295 -528.988,-363.825c-559.5,-478.121 -1322.46,-1312.29 -1556.44,-1454.71c-233.971,-142.421 -417.083,-284.841 -610.367,61.034Z" style="stroke:#000;stroke-width:17.38px;"/><path d="M56802.1,5569.21c-236.295,344.729 -309.254,646.196 -138.35,735.717c170.905,89.521 585.955,97.658 585.955,97.658c-0,0 618.504,968.45 683.612,1302.12c65.104,333.667 56.967,675.475 382.496,561.538c325.529,-113.934 830.1,-382.496 691.75,-642.921c-138.35,-260.421 -439.467,-659.196 -708.025,-1074.25c-268.563,-415.05 -856.754,-1237.33 -1171.91,-1196.32c-150.721,19.608 -200.213,33.637 -325.53,216.458Z" style="stroke:#000;stroke-width:17.38px;"/><g><path d="M6798.67,5507c-0,0 341.808,-260.425 651.058,-130.212c309.254,130.212 1334.67,740.579 1497.44,927.758c162.762,187.183 56.966,740.583 -48.834,1106.8c-105.795,366.221 -1505.58,2498.44 -1993.87,3084.4c-488.292,585.954 -4020.3,4036.58 -4451.62,4126.1c-431.33,89.521 -577.817,-65.109 -366.221,-260.425c97.862,-90.338 1004.9,-792.263 1908.31,-1770.16c1132.79,-1226.19 2232.25,-2401.76 2803.73,-3080.23c1271.6,-1509.66 1505.58,-2408.93 1163.77,-2710.04c-341.808,-301.116 -976.591,-683.616 -1114.94,-781.275c-138.35,-97.658 -48.829,-512.708 -48.829,-512.708l0.004,0Z" style="stroke:#000;stroke-width:17.38px;"/><path d="M6895.5,10195.1c462.25,97.659 742.208,358.079 807.313,605.484c65.108,247.404 253.912,1289.1 71.616,2187.56c-182.296,898.463 -514.337,2304.75 -416.679,2662.83c97.663,358.088 279.958,768.255 104.171,970.084c-175.788,201.825 -390.638,332.041 -481.783,305.996c-91.15,-26.042 -488.296,-351.571 -488.296,-826.846c-0,-475.275 306,-1295.61 319.021,-1614.63c13.02,-319.021 143.233,-937.525 195.316,-1556.03c52.084,-618.508 91.15,-1158.89 -65.108,-1347.7c-156.254,-188.804 -683.613,-410.166 -644.546,-585.954c39.063,-175.783 136.721,-898.462 598.975,-800.8Z" style="stroke:#000;stroke-width:17.38px;"/></g><path d="M11686.1,8163.92c-104.171,201.825 -175.787,787.779 371.104,1132.84c546.888,345.063 833.354,697.855 963.567,889.309c130.212,191.45 618.508,199.183 735.7,-0c117.192,-199.184 201.829,-589.821 32.554,-785.138c-169.279,-195.316 -677.104,-598.975 -917.996,-768.25c-240.891,-169.275 -677.104,-533.871 -787.783,-540.379c-110.679,-6.512 -292.979,-130.212 -397.146,71.617Z" style="stroke:#000;stroke-width:17.38px;"/><path d="M11403,15148.2c-12.5,104.171 20.837,358.346 150.004,437.513c129.171,79.171 575.017,325.008 791.692,358.346c216.67,33.333 271.033,75 404.274,-83.338c133.238,-158.337 524.917,-291.675 858.259,-700.021c333.346,-408.341 1802.66,-2419.62 2193.3,-3185.27c390.637,-765.65 901.066,-2302.15 901.066,-2515.7c0,-213.55 -218.754,-218.759 -276.05,10.416c-57.291,229.171 -479.179,1307.33 -651.058,1468.79c-171.879,161.463 -354.175,291.675 -557.308,630.225c-203.13,338.55 -687.517,1197.95 -1166.7,1849.01c-479.179,651.063 -1026.07,1432.33 -1479.21,1442.75c-453.137,10.417 -795.704,15.625 -957.762,78.13c-162.058,62.5 -198.004,104.979 -210.504,209.145Z" style="stroke:#000;stroke-width:17.38px;"/><path d="M18282.7,8080.96c125.554,-218.191 127.287,-500.579 298.125,-475.579c170.837,25 1545.88,425.013 2004.22,391.679c458.346,-33.337 1066.7,0 1283.37,-108.337c216.671,-108.338 587.517,-387.513 700.021,-337.508c112.5,50 250.004,341.675 204.171,620.85c-45.833,279.175 -233.342,566.679 -645.85,645.849c-412.512,79.171 -1012.53,-29.166 -1204.2,62.501c-191.675,91.67 -1372.43,-25.684 -1588.44,-113.688c-216.009,-88 -888.025,-304.008 -973.363,-400.008c-85.337,-96.004 -121.071,-211.013 -78.058,-285.759Z" style="stroke:#000;stroke-width:17.38px;"/><path d="M19022.2,8569.92c145.837,109.375 473.97,359.033 557.304,729.008c83.337,369.979 406.262,1682.51 343.762,2120.03c-62.504,437.513 -312.508,1703.17 -250.008,2265.69c62.504,562.516 15.625,1489.62 276.05,1760.47c260.425,270.842 1213.58,626.263 1640.67,857.417c427.096,231.154 968.775,163.446 1265.66,106.15c296.884,-57.292 1947.97,-70.117 2145.89,-433.508c197.925,-363.388 114.587,-852.984 -125.004,-905.071c-239.588,-52.084 -598.975,83.337 -729.184,166.671c-130.212,83.337 -1276.08,62.504 -1750.05,78.129c-473.97,15.625 -1442.75,-333.342 -1635.46,-572.934c-192.713,-239.587 -338.55,-1312.53 -161.463,-1760.46c177.088,-447.929 119.796,-1453.17 109.38,-2026.1c-10.417,-572.929 -135.421,-1550.18 -88.546,-1764.7c46.879,-214.521 427.095,-490.571 520.85,-558.279c93.754,-67.709 -2265.69,-171.879 -2119.85,-62.5Z" style="stroke:#000;stroke-width:17.38px;"/><path d="M16896.5,11729.2c-66.67,106.671 -373.345,554.866 6.667,764.112c380.008,209.25 1033.36,305.921 1410.04,239.25c376.68,-66.666 1533.38,-215.154 1790.05,-239.25c256.675,-24.091 550.016,107.429 746.687,0c196.671,-107.425 750.021,-460.771 920.025,-417.433c170.004,43.333 820.021,421.525 1066.7,417.433c246.675,-4.091 490.012,-75.908 556.683,0c66.667,75.913 390.008,355.921 530.013,305.917c140.004,-50 333.341,-576.679 236.675,-723.35c-96.671,-146.671 -273.342,-550.017 -603.35,-570.017c-330.013,-20 -908.775,-276.675 -1492.75,-260.008c-583.975,16.667 -1053.99,133.337 -1494,213.342c-440.013,80 -1136.7,103.333 -1420.04,143.337c-283.342,40 -873.358,260.004 -1103.37,233.338c-230.004,-26.667 -1083.36,-213.338 -1150.03,-106.671Z" style="stroke:#000;stroke-width:17.38px;"/><path d="M27043.2,7826c-50.004,170.008 -36.671,540.017 176.671,746.688c213.337,206.675 1050.03,586.683 1326.7,543.35c276.671,-43.334 520.013,-323.342 660.017,-360.009c140.004,-36.671 930.025,33.334 1553.38,-6.671c623.35,-40 1073.36,-40 1146.7,-293.337c73.333,-253.342 70,-670.021 -240.009,-693.354c-310.008,-23.334 -1400.04,76.666 -1593.38,83.337c-193.341,6.667 -913.362,16.667 -1316.7,113.333c-403.346,96.671 -960.025,-123.337 -1120.03,-230.004c-160.004,-106.671 -543.35,-73.337 -593.35,96.667Z" style="stroke:#000;stroke-width:17.38px;"/><path d="M26069.7,10567.8c-20,190.005 40,800.021 646.684,840.021c606.683,40.004 2110.06,-30 2306.73,-40c196.675,-10 2560.07,-186.671 2693.41,-230.004c133.338,-43.337 170.004,76.667 146.671,203.338c-23.333,126.67 -266.733,1700.06 -820.079,2420.08c-553.35,720.021 -1730.05,1416.7 -2053.39,1440.04c-323.346,23.334 -863.358,-243.337 -1040.03,-180.004c-176.671,63.338 -103.337,413.346 236.671,586.683c340.008,173.338 746.687,243.342 1110.03,233.338c363.342,-10 1476.7,-176.671 1963.38,-856.688c486.683,-680.02 542.445,-1066.69 686.233,-1230.03c143.792,-163.337 440.467,-550.017 497.133,-823.358c56.667,-273.338 150.004,-1210.03 210.004,-1326.7c60.005,-116.671 166.671,-423.346 250.009,-540.017c83.337,-116.671 353.341,-330.008 293.341,-463.346c-60,-133.337 -357.583,-600.016 -1250.49,-456.679c-892.904,143.338 -1106.24,336.675 -1736.26,323.342c-630.021,-13.334 -2416.73,63.337 -2696.74,-83.334c-280.008,-146.67 -833.358,-246.675 -1033.36,-220.008c-200.004,26.671 -389.954,213.329 -409.954,403.333Z" style="stroke:#000;stroke-width:17.38px;"/><path d="M35865.6,9561.62c-96.666,180.004 3.334,593.35 203.342,790.021c200.004,196.671 246.671,470.054 220.004,893.379c-26.666,423.321 -140.004,1490.02 -280.008,1873.36c-140.004,383.342 -296.675,636.684 -750.021,720.021c-453.346,83.334 -1266.7,43.334 -1466.7,30c-200.004,-13.333 -246.675,76.667 -120.004,370.009c126.671,293.341 700.021,563.35 1106.7,450.012c406.679,-113.337 540.016,-133.337 733.354,-146.671c193.337,-13.333 580.016,-190.004 790.021,-503.346c210.008,-313.341 710.02,-1150.03 713.354,-1440.04c3.333,-290.004 10,-763.354 73.333,-976.692c63.338,-213.337 136.671,-1278.46 66.671,-1504.25c-70.004,-225.792 -563.35,-445.8 -676.688,-655.804c-113.333,-210.004 -516.679,-80 -613.35,100.004Z" style="stroke:#000;stroke-width:17.38px;"/><path d="M37315.7,7668.21c-79.166,177.25 -91.666,482.321 175.009,725.629c266.671,243.309 620.85,430.813 700.016,664.15c79.171,233.342 -8.333,1683.38 8.334,2504.24c16.666,820.854 -79.167,2454.23 -154.171,2950.08c-75,495.846 -129.171,975.025 -175.004,1070.86c-45.834,95.833 162.504,500.012 425.012,475.012c262.504,-25 408.342,-329.175 595.85,-279.175c187.504,50 770.854,-95.837 1441.7,-437.512c670.85,-341.675 1345.87,-633.35 1508.38,-979.192c162.505,-345.842 629.184,-1654.21 629.184,-1837.55c-0,-183.337 -145.838,-800.021 -291.675,-716.687c-145.838,83.337 -133.338,437.512 -154.171,687.52c-20.833,250.005 -145.838,708.35 -558.35,1075.03c-412.508,366.675 -887.521,679.183 -1400.04,854.187c-512.512,175.004 -1245.87,321.838 -1300.03,290.092c-54.171,-31.75 -58.337,-294.259 0,-490.096c58.333,-195.838 312.508,-1387.54 295.842,-1912.55c-16.667,-525.017 45.833,-2945.92 8.333,-3404.26c-37.5,-458.346 -141.671,-541.679 -275.008,-704.183c-133.338,-162.504 -583.35,-375.329 -795.854,-535.592c-212.509,-160.262 -604.184,-177.246 -683.355,0Z" style="stroke:#000;stroke-width:17.38px;"/><path d="M44735.8,8393.83c-48.829,186.192 -227.87,414.7 301.117,959.642c528.983,544.946 1147.49,1057.65 1847.38,959.992c699.888,-97.659 2661.2,-219.73 3051.84,-309.25c390.633,-89.521 1359.08,25.054 1538.12,-650.742c179.042,-675.792 -423.188,-1351.27 -675.475,-1367.54c-252.283,-16.279 24.417,406.913 24.417,634.784c-0,227.871 -105.796,227.871 -472.017,301.112c-366.221,73.246 -2856.53,456.379 -3304.12,431.646c-447.604,-24.733 -642.925,-20.104 -862.654,-234.013c-219.734,-213.908 -496.434,-561.874 -740.579,-725.629c-244.15,-163.754 -659.2,-186.191 -708.03,0Z" style="stroke:#000;stroke-width:17.38px;"/><path d="M47623.8,5498.88c-62.5,171.879 -171.879,567.721 -57.292,854.188c114.588,286.466 567.725,791.687 687.521,937.525c119.792,145.837 156.25,306.387 182.296,694.875c26.042,388.487 59.754,2018.74 -349.042,3503.15c-408.791,1484.42 -1059.85,3144.62 -1137.98,3346.45c-78.125,201.83 -742.208,826.846 -1432.33,859.396c-690.125,32.555 -1184.93,-123.7 -1419.31,-234.379c-234.384,-110.679 -351.571,-26.041 -286.467,253.913c65.104,279.954 488.296,722.675 774.758,794.291c286.467,71.617 1243.53,-53.47 1627.65,-205.775c384.125,-152.308 1302.12,-647.112 1627.65,-1304.68c325.533,-657.571 768.25,-2182.48 1054.72,-3197.42c286.466,-1014.93 273.446,-1387.45 598.975,-1682.98c325.529,-295.525 423.187,-964.308 306,-961.958c-117.192,2.35 -416.679,0 -416.679,0c-0,0 188.808,-1104.45 84.637,-1521.12c-104.171,-416.679 -364.592,-944.037 -774.758,-1419.31c-410.171,-475.271 -478.021,-638.038 -606.863,-696.634c-128.837,-58.591 -463.483,-19.529 -463.483,-19.529" style="stroke:#000;stroke-width:17.38px;"/><path d="M58428.3,4977.25c15.63,197.921 177.092,640.642 364.596,802.104c187.504,161.463 875.021,380.221 916.692,541.684c41.666,161.462 -104.171,130.208 -239.592,229.17c-135.421,98.963 -744.812,703.142 -822.937,848.979c-78.13,145.838 31.25,687.521 31.25,687.521c-0,0 609.391,-52.083 770.854,-291.675c161.462,-239.591 473.971,-604.183 692.725,-609.391c218.758,-5.209 1083.37,140.629 1375.04,-223.963c291.675,-364.596 296.884,-598.975 140.63,-750.021c-156.255,-151.046 -359.384,-31.25 -723.98,-291.675c-364.591,-260.425 -1192.74,-640.641 -1463.58,-875.025c-270.841,-234.379 -1057.32,-265.629 -1041.7,-67.708Z" style="stroke:#000;stroke-width:17.38px;"/><path d="M52840,8001.79c-31.25,302.091 -119.796,630.225 296.883,781.27c416.68,151.046 1046.9,421.888 1208.37,968.775c161.463,546.892 205,1437.54 76.458,1572.96c-128.541,135.417 -258.754,229.171 -175.42,447.925c83.337,218.758 322.925,437.513 510.433,401.054c187.504,-36.458 609.392,-468.762 583.346,-1260.45c-26.042,-791.687 -10.417,-1984.43 -651.059,-2458.4c-640.641,-473.971 -1447.95,-890.646 -1583.38,-828.146c-135.42,62.5 -234.383,72.917 -265.633,375.009Z" style="stroke:#000;stroke-width:17.38px;"/><path d="M54805.8,8821.88c307.3,161.463 1458.37,-72.921 1578.17,-619.808c119.796,-546.892 666.683,-260.425 776.063,-260.425c109.374,-0 203.129,229.175 369.8,229.175c166.67,-0 281.258,-265.634 557.308,-359.388c276.046,-93.75 1609.42,-140.625 2328.18,0c718.771,140.629 2322.98,619.809 2562.57,656.271c239.588,36.458 750.017,223.963 838.562,411.467c88.546,187.504 31.255,729.187 -427.095,875.025c-458.346,145.837 -468.759,-38.204 -760.434,144.966c-291.675,183.167 -1484.42,1058.19 -1791.72,1089.44c-307.3,31.25 -286.467,-125.004 -67.709,-385.429c218.754,-260.421 991.104,-1026.07 990.354,-1223.99c-0.745,-197.921 -1495.58,-770.85 -2584.14,-619.804c-1088.57,151.042 -2192.77,239.588 -2442.78,557.304c-250.009,317.717 -145.838,1286.49 -333.342,1401.08c-187.504,114.588 -739.604,-52.083 -1135.45,-312.508c-395.846,-260.425 -765.646,-1744.84 -458.346,-1583.38Z" style="stroke:#000;stroke-width:17.38px;"/><path d="M57022.9,10655.1c-208.342,88.546 -708.354,52.088 -770.854,-161.462c-62.5,-213.546 208.337,-864.604 578.141,-953.15c369.8,-88.542 2322.98,-359.384 2979.25,-260.421c656.267,98.958 1171.9,604.183 869.813,854.187c-302.092,250.009 -1526.08,848.984 -1578.17,1161.49c-52.084,312.508 -672.867,734.392 -672.867,734.392c0,-0 -467.787,-276.05 -316.741,-520.846c151.045,-244.8 765.645,-1036.49 750.016,-1130.24c-15.625,-93.754 -994.816,-93.754 -1359.41,10.417c-364.592,104.167 -270.842,177.088 -479.179,265.629Z" style="stroke:#000;stroke-width:17.38px;"/><path d="M54783.8,13918.7c117.188,319.016 436.208,761.737 768.25,657.566c332.038,-104.166 1165.39,-625.016 1764.37,-846.375c598.975,-221.358 2174.54,-553.4 2929.77,-533.866c755.23,19.529 1699.26,117.187 1966.2,286.462c266.934,169.275 540.379,358.084 820.334,507.829c279.958,149.742 823.879,123.7 818.849,-351.575c-5.025,-475.271 -265.45,-970.075 -805.829,-963.566c-540.375,6.512 -338.55,78.129 -800.8,-71.617c-462.25,-149.742 -1497.44,-286.467 -2597.72,-195.317c-1100.29,91.15 -2908.44,416.68 -3404.14,638.038c-495.7,221.358 -899.359,221.362 -1120.72,345.062c-221.363,123.7 -455.742,208.338 -338.55,527.359Z" style="stroke:#000;stroke-width:17.38px;"/><path d="M58025.8,11431.6c-345.062,71.617 -436.208,143.233 -481.783,403.654c-45.575,260.425 -123.7,325.396 247.404,543.567c371.104,218.175 364.592,231.196 377.613,400.471c13.021,169.275 520.846,292.975 774.762,475.271c253.913,182.295 364.442,488.295 358.004,1178.42c-6.433,690.125 -143.158,1640.67 -384.05,1731.82c-240.891,91.15 -1061.22,-852.888 -1289.1,-1106.8c-227.871,-253.913 -475.271,-266.933 -286.467,292.979c188.808,559.908 781.271,1197.95 865.908,1516.97c84.638,319.016 -24.367,566.421 297.071,677.1c321.438,110.679 946.454,58.596 1102.71,-247.404c156.254,-305.996 123.7,-800.8 240.892,-1119.82c117.188,-319.017 709.654,-1954 618.504,-2692.54c-91.146,-738.537 -735.846,-1402.62 -1165.47,-1682.57c-429.625,-279.958 -1276,-371.104 -1276,-371.104" style="stroke:#000;stroke-width:17.38px;"/></g><g><path d="M20617.1,2241.24l1515.66,0l191.856,-245.575c-0,-0 19.185,15.348 57.557,49.882c42.208,30.697 88.253,69.069 141.973,115.114c57.557,42.208 107.439,84.417 149.647,126.625c-11.511,42.208 -46.045,61.394 -103.602,61.394l-1922.4,-0l-30.697,-107.44Zm-61.394,1784.26l1661.47,0l188.019,-249.412c0,-0 19.186,15.348 57.557,46.045c42.208,34.534 88.254,72.905 141.973,118.951c57.557,46.045 107.44,88.253 149.648,130.462c-11.511,42.208 -46.045,61.394 -103.602,61.394l-2064.37,-0l-30.697,-107.44Zm211.042,-974.628l1296.95,0l180.344,-237.901c0,-0 19.186,15.348 57.557,46.045c38.371,34.534 84.417,72.906 134.299,115.114c49.883,42.208 95.928,84.417 138.136,126.625c-11.511,42.208 -42.208,61.394 -99.765,61.394l-1676.82,-0l-30.697,-111.277Zm663.821,-809.632l337.667,0l-0,1849.49l-337.667,0l0,-1849.49Zm548.708,1009.16c126.625,34.534 226.39,72.906 299.295,118.951c72.906,49.883 122.788,99.765 149.648,149.648c30.697,49.882 42.208,99.765 38.371,141.973c-3.837,46.045 -23.023,84.417 -49.882,111.276c-26.86,26.86 -57.557,42.209 -99.765,42.209c-42.209,3.837 -84.417,-15.349 -126.625,-49.883c-7.675,-57.557 -23.023,-115.113 -49.883,-172.67c-26.86,-57.557 -57.557,-115.114 -92.091,-172.67c-34.534,-57.557 -72.905,-103.603 -107.439,-145.811l38.371,-23.023Zm-1696.01,1316.13l2701.33,-0l0,111.276l-2701.33,0l-0,-111.276Zm2551.68,-2908.54l-38.371,0l188.019,-207.204l379.875,303.132c-11.512,15.349 -34.534,30.697 -61.394,42.209c-26.86,15.348 -61.394,26.86 -99.765,38.371l-0,2989.12c-0,11.511 -15.349,30.697 -49.883,49.882c-34.534,19.186 -72.905,38.372 -122.788,53.72c-49.882,15.348 -95.928,23.023 -141.973,23.023l-53.72,-0l0,-3292.25Zm-2781.91,3311.43l-0,-3480.27l395.223,164.996l2524.82,0l-0,115.114l-2559.36,-0l-0,3062.02c-0,15.349 -15.348,34.534 -42.208,53.72c-26.86,23.022 -65.231,42.208 -107.44,57.556c-42.208,19.186 -92.09,26.86 -149.647,26.86l-61.394,0Z" style="fill-rule:nonzero;"/></g><g><path d="M26806.4,1427.78l506.5,53.72c-3.837,26.86 -15.349,46.045 -30.697,65.231c-19.186,19.186 -57.557,34.534 -107.44,42.208c-3.837,260.924 0,521.848 11.512,782.772c11.511,264.762 34.534,518.011 72.905,763.587c38.371,245.575 95.928,471.965 172.67,679.17c76.743,211.041 176.508,391.386 299.296,544.871c23.022,34.534 42.208,49.882 53.719,46.045c15.349,-0 30.697,-19.186 49.883,-53.72c26.86,-49.882 57.557,-115.113 92.091,-199.53c34.534,-80.579 65.231,-161.159 92.09,-237.901l42.209,7.674l-76.743,633.125c49.883,107.439 80.58,191.855 92.091,249.412c11.512,61.394 0,103.602 -26.86,126.625c-42.208,30.697 -88.253,46.046 -138.136,42.208c-49.882,0 -99.765,-11.511 -149.647,-38.371c-49.883,-26.86 -99.766,-57.557 -145.811,-99.765c-46.045,-42.208 -84.417,-84.416 -118.951,-126.625c-145.81,-195.693 -264.761,-418.246 -353.014,-659.984c-92.091,-241.738 -161.159,-506.5 -211.042,-786.609c-49.882,-280.11 -80.579,-571.731 -99.765,-882.537c-19.186,-306.97 -26.86,-625.451 -26.86,-951.606Zm836.492,1304.62l448.943,191.855c-11.512,23.023 -26.86,38.372 -49.883,49.883c-23.023,11.511 -61.394,11.511 -111.276,7.674c-72.906,195.693 -161.159,387.549 -268.599,575.568c-111.276,191.856 -241.738,372.2 -395.223,544.871c-153.484,172.67 -333.829,329.992 -537.196,471.965c-207.205,141.974 -445.106,260.924 -709.867,360.689l-34.534,-49.882c310.806,-157.322 575.568,-353.015 798.12,-579.405c218.716,-226.39 402.898,-475.803 544.871,-748.238c141.974,-272.436 245.576,-544.871 314.644,-824.98Zm-280.11,-1193.34c130.462,-3.837 234.064,7.674 314.644,34.534c80.579,26.86 138.136,57.557 176.507,99.765c38.372,42.208 61.394,84.417 65.231,126.625c3.837,42.208 -3.837,80.579 -26.859,115.113c-23.023,34.534 -53.72,53.72 -95.928,65.231c-42.209,11.512 -88.254,0 -138.137,-26.859c-19.185,-72.906 -61.394,-141.974 -126.625,-214.879c-65.231,-72.905 -130.462,-126.625 -199.53,-164.996l30.697,-34.534Zm-1496.48,679.17l1672.98,-0l195.693,-245.576c-0,0 23.022,15.349 65.231,46.046c42.208,34.534 88.253,72.905 145.81,115.113c57.557,42.208 107.439,88.254 153.485,130.462c-11.511,42.208 -46.046,61.394 -103.602,61.394l-2098.9,-0l-30.697,-107.439Zm0,1028.35l729.053,0l138.136,-214.878c-0,-0 107.439,107.439 149.648,145.81c38.371,42.208 72.905,80.58 103.602,115.114c-11.512,42.208 -42.209,61.394 -95.928,61.394l-993.814,-0l-30.697,-107.44Zm337.667,-679.17l429.757,46.046c-3.837,23.023 -11.512,42.208 -30.697,57.557c-19.186,15.348 -46.046,26.859 -88.254,34.534l0,1538.68c0,11.511 -11.511,23.023 -38.371,34.534c-26.86,15.349 -57.557,26.86 -95.928,38.371c-38.371,11.512 -76.742,19.186 -118.951,19.186l-57.556,-0l-0,-1768.91Zm-1285.43,1454.27l437.432,207.205c-11.512,19.185 -26.86,30.696 -46.046,42.208c-19.185,11.511 -53.72,11.511 -95.928,7.674c-72.905,118.951 -168.833,241.738 -287.784,368.363c-118.95,126.625 -253.249,234.065 -402.897,322.318l-38.371,-42.208c69.068,-84.417 130.462,-180.345 188.019,-287.784c57.556,-103.602 107.439,-211.041 149.647,-322.318c42.208,-107.439 76.743,-207.204 95.928,-295.458Zm422.083,23.023c145.811,53.72 260.924,115.113 345.341,180.344c84.416,65.231 145.81,134.3 180.344,203.368c34.534,69.068 46.046,130.462 42.209,188.018c-7.675,57.557 -26.86,107.44 -57.557,141.974c-34.534,34.534 -72.905,53.719 -122.788,53.719c-49.883,3.838 -103.602,-19.185 -153.485,-61.393c-7.674,-76.743 -26.86,-157.322 -53.719,-237.902c-26.86,-80.579 -61.394,-161.159 -99.765,-241.738c-42.209,-76.743 -80.58,-145.811 -122.788,-203.367l42.208,-23.023Zm-663.821,72.905l-0,-2605.4l376.037,153.485l425.92,-0l168.834,-207.205l349.177,272.436c-11.511,19.185 -30.697,34.534 -57.557,46.045c-26.859,11.511 -57.556,23.023 -99.765,30.697l0,2152.62c0,11.512 -26.859,26.86 -80.579,53.72c-57.557,26.86 -126.625,42.208 -207.204,42.208l-57.557,0l-0,-2283.09l-487.314,0l-0,2248.55c-0,11.512 -23.023,30.697 -72.905,57.557c-49.883,26.86 -118.951,38.371 -203.368,38.371l-53.719,0Zm184.181,-1768.91l828.818,-0l-0,111.276l-828.818,0l0,-111.276Zm0,694.518l828.818,0l-0,111.276l-828.818,0l0,-111.276Zm0,709.867l828.818,-0l-0,111.276l-828.818,0l0,-111.276Z" style="fill-rule:nonzero;"/></g><g><path d="M29415.7,1450.8c157.322,19.186 287.784,49.883 379.875,92.091c95.928,46.045 168.833,95.928 211.041,149.648c46.046,57.556 69.068,111.276 72.905,164.996c3.838,57.556 -11.511,103.602 -38.371,138.136c-26.86,38.371 -61.394,61.394 -111.276,69.068c-49.883,11.511 -103.602,-0 -161.159,-34.534c-19.186,-65.231 -49.883,-134.299 -92.091,-203.367c-42.208,-65.231 -92.091,-130.462 -145.81,-191.856c-49.883,-57.557 -99.766,-111.277 -149.648,-153.485l34.534,-30.697Zm-295.458,840.329c153.485,19.186 276.272,53.72 364.526,95.928c88.254,46.045 153.485,95.928 191.856,149.647c42.208,53.72 61.394,107.44 65.231,157.322c0,49.883 -15.348,92.091 -46.045,126.625c-26.86,34.534 -65.231,57.557 -111.277,61.394c-49.882,3.837 -99.765,-11.511 -153.485,-46.045c-11.511,-61.394 -38.371,-122.788 -72.905,-188.019c-38.371,-65.231 -80.579,-122.788 -126.625,-180.345c-46.045,-57.556 -92.091,-103.602 -141.973,-145.81l30.697,-30.697Zm222.553,1550.2c26.86,-0 46.045,-3.838 57.557,-11.512c11.511,-3.837 26.859,-26.86 46.045,-69.068c11.511,-23.023 26.86,-46.045 38.371,-69.068c11.511,-23.023 23.023,-53.72 42.208,-92.091c15.349,-38.371 38.372,-92.091 69.069,-161.159c30.696,-72.905 72.905,-168.833 122.787,-287.784c49.883,-118.95 115.114,-272.435 191.856,-460.454c76.743,-188.019 172.671,-414.409 283.947,-683.007l65.231,19.186c-30.697,95.928 -65.231,207.204 -103.602,333.829c-38.371,126.625 -76.743,253.25 -118.951,383.712c-38.371,130.462 -76.742,257.087 -111.276,376.037c-34.534,122.788 -65.231,230.228 -92.091,318.481c-26.86,88.254 -42.208,153.485 -53.72,195.693c-15.348,65.231 -30.697,126.625 -42.208,191.856c-11.511,61.394 -15.349,115.114 -15.349,164.996c3.838,49.883 11.512,95.928 26.86,141.974c11.512,46.045 26.86,95.928 46.046,145.81c19.185,49.883 30.697,107.439 42.208,172.67c11.511,65.231 19.186,138.137 15.348,218.716c-3.837,88.254 -30.696,161.159 -80.579,218.716c-49.883,53.719 -111.276,80.579 -188.019,80.579c-42.208,0 -76.742,-15.348 -111.276,-46.045c-30.697,-34.534 -49.883,-84.417 -61.394,-149.648c19.185,-134.299 30.697,-257.087 34.534,-372.2c3.837,-111.277 -0,-207.205 -15.349,-283.947c-11.511,-72.905 -34.534,-118.951 -65.231,-138.136c-23.022,-19.186 -49.882,-34.534 -80.579,-42.208c-30.697,-7.675 -69.068,-11.512 -111.276,-15.349l-0,-80.579l168.833,-0Zm1550.19,-2432.73l510.337,49.882c-3.837,26.86 -11.511,49.883 -30.697,69.068c-19.185,19.186 -53.719,34.535 -103.602,42.209c-3.837,310.806 3.837,613.939 26.86,909.397c23.023,295.458 69.068,567.893 138.136,824.98c65.231,253.25 164.996,479.64 295.458,679.17c130.462,195.693 303.132,356.852 514.174,475.803c34.534,23.022 57.557,34.534 80.579,34.534c19.186,-3.837 38.372,-23.023 57.557,-57.557c26.86,-49.883 61.394,-122.788 103.602,-211.042c46.046,-88.253 80.58,-176.507 111.277,-260.924l46.045,7.675l-76.742,613.938c72.905,88.254 115.113,153.485 126.625,199.531c11.511,46.045 7.674,84.416 -15.349,115.113c-30.697,38.371 -69.068,61.394 -118.95,72.905c-49.883,7.675 -103.603,3.838 -157.322,-7.674c-57.557,-11.511 -118.951,-34.534 -176.508,-61.394c-57.556,-26.86 -115.113,-57.556 -164.996,-92.091c-245.575,-153.484 -445.105,-345.34 -598.59,-575.567c-153.485,-234.064 -272.435,-494.988 -353.015,-790.447c-80.579,-295.458 -138.136,-613.938 -168.833,-955.442c-30.697,-341.503 -46.046,-702.193 -46.046,-1082.07Zm594.754,95.928c149.647,-3.837 268.598,7.674 356.852,38.371c88.253,26.86 157.322,65.231 199.53,107.439c42.208,42.209 65.231,88.254 69.068,134.299c3.837,49.883 -7.674,92.091 -34.534,126.625c-26.86,34.534 -61.394,57.557 -107.439,69.068c-49.883,11.512 -99.765,3.837 -157.322,-26.859c-26.86,-72.906 -76.743,-149.648 -145.811,-230.228c-72.905,-80.579 -141.973,-141.973 -211.041,-191.855l30.697,-26.86Zm-1273.92,755.912l1738.21,-157.322l199.53,-299.295c0,-0 111.277,69.068 157.322,95.928c46.045,26.86 95.928,61.394 145.81,95.928c49.883,30.697 95.928,65.231 138.137,92.091c-7.675,46.045 -42.209,72.905 -99.765,76.742l-2240.88,199.53l-38.371,-103.602Zm26.859,564.056l1680.66,-161.159l199.53,-299.295c0,0 15.349,7.674 42.208,26.86c30.697,19.186 69.069,42.208 111.277,69.068c46.045,26.86 95.928,57.557 145.81,88.254c49.883,34.534 95.928,65.231 138.137,95.928c-3.837,46.045 -38.372,72.905 -95.928,76.742l-2179.48,211.042l-42.209,-107.44Zm-161.159,633.125l1956.93,-207.205l199.53,-303.132c-0,0 111.276,69.068 157.322,95.928c46.045,26.86 95.927,57.557 145.81,88.254c49.883,34.534 99.765,65.231 141.973,95.928c-7.674,42.208 -42.208,69.068 -99.765,72.905l-2463.43,260.924l-38.372,-103.602Zm1987.63,-76.743l456.617,272.436c-11.512,19.185 -30.697,30.697 -57.557,34.534c-23.023,7.674 -57.557,7.674 -107.44,-3.837c-214.878,245.575 -445.105,448.943 -686.844,613.939c-241.738,164.996 -498.825,295.458 -771.26,395.223c-272.436,103.602 -567.894,184.181 -882.537,249.412l-19.186,-65.231c280.11,-95.927 541.034,-207.204 790.446,-337.666c245.576,-126.625 475.803,-287.784 686.844,-475.803c214.879,-188.018 410.572,-414.408 590.917,-683.007Z" style="fill-rule:nonzero;"/></g><g><path d="M34426.9,2766.93l1811.12,-0l-0,115.113l-1776.59,0l-34.534,-115.113Zm-644.636,894.048l2881.68,0l230.227,-295.458c-0,-0 15.348,11.511 42.208,34.534c26.86,19.186 65.231,49.883 107.439,84.417c46.046,34.534 92.091,72.905 138.137,111.276c49.882,42.208 92.09,80.58 134.299,115.114c-11.512,42.208 -46.046,61.393 -107.44,61.393l-3395.85,0l-30.697,-111.276Zm1569.38,-402.897l514.174,46.045c-7.674,53.72 -49.882,88.254 -130.462,99.765l0,1089.74c0,88.253 -11.511,168.833 -38.371,234.064c-26.86,65.231 -80.58,118.951 -161.159,161.159c-80.58,42.208 -203.367,69.068 -376.038,88.254c-11.511,-61.394 -23.022,-115.114 -42.208,-161.159c-15.348,-42.209 -42.208,-80.58 -76.742,-107.44c-42.209,-34.534 -92.091,-61.394 -157.322,-84.416c-61.394,-19.186 -149.648,-38.372 -268.598,-57.557l-0,-53.72c-0,0 138.136,7.674 195.693,11.512c57.556,3.837 118.95,7.674 180.344,11.511c61.394,3.837 115.114,7.674 164.996,11.511c49.883,3.837 84.417,3.837 103.602,3.837c34.535,0 61.394,-7.674 72.906,-19.185c11.511,-11.512 19.185,-30.697 19.185,-61.394l0,-1212.53Zm-1124.28,-1024.51l2755.05,0l0,115.114l-2755.05,-0l-0,-115.114Zm-69.068,-272.435l57.556,-3.837c69.068,164.996 103.603,310.806 103.603,437.431c-0,126.625 -23.023,234.064 -65.231,318.481c-42.209,84.417 -92.091,145.81 -153.485,188.019c-57.557,38.371 -122.788,53.719 -188.019,49.882c-65.231,-7.674 -111.276,-42.208 -134.299,-99.765c-23.023,-57.557 -23.023,-107.439 3.837,-153.485c26.86,-46.045 69.068,-80.579 118.951,-107.439c76.742,-49.882 141.973,-130.462 195.693,-245.575c57.556,-115.114 76.742,-241.739 61.394,-383.712Zm2624.59,276.272l-42.208,0l222.553,-218.715l383.712,364.526c-15.349,19.185 -34.534,30.697 -57.557,34.534c-23.023,3.837 -53.72,7.674 -95.928,11.511c-46.046,42.208 -103.602,88.254 -176.508,138.136c-69.068,46.046 -141.973,92.091 -218.715,138.137c-72.905,46.045 -141.974,84.416 -207.205,115.113l-38.371,-26.86c26.86,-49.882 57.557,-107.439 84.417,-176.507c30.697,-65.231 57.557,-134.299 84.416,-203.367c26.86,-65.231 46.046,-126.625 61.394,-176.508Zm-2405.87,-778.935c157.322,42.209 280.11,92.091 372.201,153.485c92.091,61.394 157.322,126.625 195.693,191.856c42.208,65.231 61.394,126.625 57.557,184.182c-3.838,57.556 -19.186,107.439 -53.72,145.81c-30.697,34.534 -72.905,57.557 -122.788,61.394c-49.882,3.837 -99.765,-15.348 -157.322,-57.557c-11.511,-72.905 -34.534,-149.647 -69.068,-230.227c-34.534,-80.579 -72.905,-157.322 -118.951,-230.227c-46.045,-72.905 -92.09,-138.136 -141.973,-191.856l38.371,-26.86Zm867.189,-57.556c149.648,53.719 268.598,115.113 353.015,184.181c84.416,65.231 141.973,134.299 172.67,199.53c30.697,69.068 42.208,134.299 30.697,191.856c-7.674,57.557 -30.697,103.602 -69.068,138.137c-34.534,34.534 -80.58,53.719 -134.299,49.882c-49.883,0 -103.602,-23.023 -157.322,-72.905c-0,-76.743 -11.511,-153.485 -34.534,-234.064c-23.023,-80.58 -53.72,-157.322 -88.254,-234.065c-34.534,-72.905 -72.905,-141.973 -115.113,-199.53l42.208,-23.022Zm1143.46,7.674l506.5,184.181c-11.512,23.023 -26.86,38.372 -49.883,49.883c-26.86,11.511 -61.394,19.186 -103.602,15.348c-84.417,95.928 -191.856,203.368 -322.318,322.318c-130.462,118.951 -260.924,226.39 -391.386,318.481l-92.091,0c57.557,-80.579 111.277,-176.507 168.833,-280.109c57.557,-103.603 107.44,-207.205 157.322,-314.644c49.883,-107.439 92.091,-207.204 126.625,-295.458Zm-272.435,1362.18l-46.046,-0l218.716,-207.205l364.526,349.178c-11.511,15.349 -30.697,26.86 -57.557,30.697c-23.022,3.837 -57.556,7.674 -99.765,11.511c-72.905,46.046 -164.996,95.928 -272.435,149.648c-107.439,57.557 -214.879,107.439 -329.992,157.322c-107.439,49.882 -211.042,92.091 -306.97,126.625l-34.534,-34.534c57.557,-49.883 122.788,-111.277 195.693,-180.345c72.906,-69.068 141.974,-141.973 207.205,-214.879c65.231,-72.905 118.95,-134.299 161.159,-188.018Z" style="fill-rule:nonzero;"/></g><g><path d="M39326.9,1727.07l1527.17,-0l0,115.113l-1527.17,0l0,-115.113Zm-188.019,1124.28l0,-1277.76l429.758,157.322l-57.557,-0l-0,1112.76c-0,149.648 -7.674,303.132 -23.023,456.617c-11.511,157.322 -38.371,310.807 -80.579,464.291c-42.209,149.648 -99.765,299.295 -180.345,441.269c-80.579,141.973 -188.019,280.109 -318.481,410.571c-134.299,126.625 -299.295,245.576 -498.825,353.015l-38.371,-42.208c218.715,-191.856 383.712,-399.06 494.988,-617.776c111.276,-222.553 184.182,-456.617 218.716,-702.193c34.534,-245.575 53.719,-498.825 53.719,-755.912Zm1507.99,-1120.44l-46.046,-0l191.856,-222.553l387.549,318.481c-11.511,19.185 -30.697,30.697 -57.557,42.208c-26.859,11.511 -61.394,23.023 -103.602,26.86l0,2524.82c0,38.372 7.674,65.231 23.023,80.58c15.348,15.348 49.882,23.023 99.765,23.023l345.341,-0c34.534,-0 65.231,-0 84.416,-3.838c15.349,-3.837 30.697,-7.674 42.208,-11.511c11.512,-7.674 23.023,-19.185 34.534,-38.371c11.512,-19.186 26.86,-61.394 42.209,-118.951c15.348,-57.556 30.697,-126.625 49.882,-203.367c19.186,-76.742 38.372,-153.485 57.557,-230.227l42.208,-0l15.349,579.405c53.72,23.022 88.254,46.045 103.602,69.068c19.186,23.023 26.86,53.72 26.86,92.091c-0,49.882 -19.186,95.928 -57.557,130.462c-38.371,34.534 -103.602,57.557 -199.53,76.742c-95.928,15.349 -226.39,23.023 -395.223,23.023l-287.784,-0c-103.602,-0 -188.019,-11.512 -245.576,-30.697c-57.556,-23.023 -99.765,-61.394 -122.787,-115.114c-19.186,-53.719 -30.697,-126.625 -30.697,-214.878l-0,-2797.26Zm-982.303,878.7c191.856,61.394 345.341,134.299 460.455,214.878c115.113,80.58 199.53,164.996 249.412,249.413c53.72,80.579 80.58,157.322 84.417,230.227c3.837,72.905 -7.674,130.462 -42.208,176.508c-30.697,42.208 -72.906,69.068 -130.462,72.905c-53.72,3.837 -115.114,-15.349 -180.345,-65.231c-15.348,-99.765 -49.882,-199.53 -99.765,-303.133c-49.883,-103.602 -107.439,-199.53 -176.507,-295.458c-69.069,-95.928 -138.137,-180.344 -203.368,-253.249l38.371,-26.86Z" style="fill-rule:nonzero;"/></g><g><path d="M44860,1638.82c19.185,360.689 61.394,690.681 122.788,989.976c65.231,299.296 161.159,571.731 291.621,813.469c126.624,241.739 299.295,452.78 518.011,640.799c218.715,184.182 491.151,341.504 821.143,475.803l-7.674,46.045c-95.928,15.349 -172.671,53.72 -237.902,111.277c-61.394,57.556 -103.602,134.299 -130.462,237.901c-291.621,-157.322 -529.522,-349.178 -717.541,-567.894c-184.182,-218.715 -326.155,-468.128 -425.92,-744.401c-103.602,-280.109 -176.507,-587.079 -218.716,-920.908c-42.208,-333.829 -72.905,-690.681 -84.416,-1074.39l69.068,-7.674Zm-0,-0c-3.837,191.856 -11.511,387.549 -23.023,587.079c-11.511,199.53 -30.697,399.06 -65.231,598.59c-34.534,199.53 -84.416,395.223 -157.322,587.079c-72.905,195.693 -176.507,383.712 -303.132,564.057c-126.625,184.181 -291.621,360.689 -494.988,525.685c-203.367,164.996 -452.78,322.318 -744.401,468.128l-46.046,-61.394c291.621,-195.693 529.523,-402.897 709.867,-621.613c180.345,-214.878 322.318,-437.431 425.92,-667.658c99.765,-230.227 172.671,-464.292 214.879,-702.193c42.208,-237.901 65.231,-479.64 72.905,-721.378c7.674,-237.901 11.512,-479.64 11.512,-717.541l537.196,53.72c-3.837,26.859 -15.348,46.045 -34.534,69.068c-19.186,19.185 -53.72,30.697 -103.602,38.371Z" style="fill-rule:nonzero;"/></g></svg>