<?xml version="1.0" encoding="UTF-8" standalone="no"?><!DOCTYPE svg PUBLIC "-//W3C//DTD SVG 1.1//EN" "http://www.w3.org/Graphics/SVG/1.1/DTD/svg11.dtd"><svg width="100%" height="100%" viewBox="0 0 16000 4500" version="1.1" xmlns="http://www.w3.org/2000/svg" xmlns:xlink="http://www.w3.org/1999/xlink" xml:space="preserve" xmlns:serif="http://www.serif.com/" style="fill-rule:evenodd;clip-rule:evenodd;stroke-linecap:round;stroke-linejoin:round;stroke-miterlimit:1.5;"><g><path d="M11830.1,2832.1c-5.859,60.874 132.816,340.179 263.679,512.058c130.863,171.88 332.04,658.221 462.903,718.769c130.863,60.549 503.92,91.8 607.438,52.736c103.518,-39.063 162.114,-121.613 150.395,-148.699c-11.719,-27.087 -101.565,-95.448 -208.99,-85.682c-107.425,9.766 -296.883,-19.532 -398.448,-76.174c-101.565,-56.642 -198.654,-242.194 -345.428,-474.622c-146.773,-232.428 -357.716,-558.609 -422.171,-568.375c-64.455,-9.765 -103.518,9.115 -109.378,69.989Z" style="fill:#fff;stroke:#fff;stroke-width:4.17px;"/><path d="M13093.4,1388.17c-46.388,83.01 -56.154,163.579 63.478,251.472c119.632,87.893 375.987,280.769 373.546,354.013c-2.442,73.244 190.434,70.803 217.29,26.857c26.857,-43.947 36.623,-184.26 -7.324,-210.542c-43.946,-26.281 7.324,27.431 -126.957,-87.318c-134.28,-114.749 -317.391,-314.95 -373.545,-349.13c-56.153,-34.181 -100.1,-68.362 -146.488,14.648Z" style="fill:#fff;stroke:#fff;stroke-width:4.17px;"/><path d="M13632.5,1336.61c-56.711,82.735 -74.221,155.087 -33.204,176.572c41.017,21.485 140.629,23.438 140.629,23.438c-0,-0 148.441,232.428 164.067,312.508c15.625,80.08 13.672,162.114 91.799,134.769c78.127,-27.344 199.224,-91.799 166.02,-154.301c-33.204,-62.501 -105.472,-158.207 -169.926,-257.819c-64.455,-99.612 -205.621,-296.958 -281.258,-287.117c-36.173,4.706 -48.051,8.073 -78.127,51.95Z" style="fill:#fff;stroke:#fff;stroke-width:4.17px;"/><g><path d="M1631.68,1321.68c-0,-0 82.034,-62.502 156.254,-31.251c74.221,31.251 320.322,177.739 359.386,222.662c39.063,44.924 13.672,177.74 -11.72,265.633c-25.391,87.893 -361.338,599.626 -478.529,740.255c-117.19,140.629 -964.871,968.778 -1068.39,990.263c-103.519,21.485 -138.676,-15.626 -87.893,-62.502c23.487,-21.681 241.176,-190.143 457.995,-424.839c271.87,-294.285 535.74,-576.423 672.896,-739.256c305.185,-362.319 361.338,-578.142 279.305,-650.409c-82.034,-72.268 -234.382,-164.068 -267.586,-187.506c-33.204,-23.438 -11.719,-123.05 -11.719,-123.05Z" style="fill:#fff;stroke:#fff;stroke-width:4.17px;"/><path d="M1654.92,2446.82c110.94,23.438 178.13,85.939 193.755,145.316c15.626,59.377 60.939,309.384 17.188,525.015c-43.751,215.631 -123.441,553.14 -100.003,639.08c23.439,85.941 67.19,184.381 25.001,232.82c-42.189,48.438 -93.753,79.69 -115.628,73.439c-21.876,-6.25 -117.191,-84.377 -117.191,-198.443c-0,-114.066 73.44,-310.946 76.565,-387.511c3.125,-76.565 34.376,-225.006 46.876,-373.448c12.5,-148.442 21.876,-278.133 -15.626,-323.447c-37.501,-45.313 -164.067,-98.44 -154.691,-140.629c9.375,-42.188 32.813,-215.631 143.754,-192.192Z" style="fill:#fff;stroke:#fff;stroke-width:4.17px;"/></g><path d="M2804.67,1959.34c-25.001,48.438 -42.189,189.067 89.065,271.882c131.253,82.815 200.005,167.485 231.256,213.434c31.251,45.948 148.442,47.804 176.568,-0c28.126,-47.804 48.439,-141.557 7.813,-188.433c-40.627,-46.876 -162.505,-143.754 -220.319,-184.38c-57.814,-40.626 -162.505,-128.129 -189.068,-129.691c-26.563,-1.563 -70.315,-31.251 -95.315,17.188Z" style="fill:#fff;stroke:#fff;stroke-width:4.17px;"/><path d="M2736.73,3635.57c-3,25.001 5.001,86.003 36.001,105.003c31.001,19.001 138.004,78.002 190.006,86.003c52.001,8 65.048,18 97.026,-20.001c31.977,-38.001 125.98,-70.002 205.982,-168.005c80.003,-98.002 432.639,-580.71 526.391,-764.465c93.753,-183.756 216.256,-552.516 216.256,-603.767c0,-51.252 -52.501,-52.502 -66.252,2.5c-13.75,55.001 -115.003,313.758 -156.254,352.51c-41.251,38.751 -85.002,70.002 -133.754,151.254c-48.751,81.252 -165.004,287.508 -280.008,443.762c-115.003,156.255 -246.257,343.76 -355.01,346.26c-108.753,2.5 -190.969,3.75 -229.863,18.751c-38.894,15 -47.521,25.195 -50.521,50.195Z" style="fill:#fff;stroke:#fff;stroke-width:4.17px;"/><path d="M4387.84,1939.43c30.133,-52.366 30.549,-120.139 71.55,-114.139c41.001,6 371.01,102.003 481.013,94.003c110.003,-8.001 256.007,-0 308.009,-26.001c52.001,-26.001 141.004,-93.003 168.005,-81.002c27,12 60.001,82.002 49.001,149.004c-11,67.002 -56.002,136.003 -155.004,155.004c-99.003,19.001 -243.007,-7 -289.008,15c-46.002,22.001 -329.384,-6.164 -381.225,-27.285c-51.842,-21.12 -213.126,-72.962 -233.607,-96.002c-20.481,-23.041 -29.057,-50.643 -18.734,-68.582Z" style="fill:#fff;stroke:#fff;stroke-width:4.17px;"/><path d="M4565.32,2056.78c35.001,26.25 113.753,86.168 133.753,174.962c20.001,88.795 97.503,403.803 82.503,508.806c-15.001,105.003 -75.002,408.762 -60.002,543.765c15.001,135.004 3.75,357.51 66.252,422.512c62.502,65.002 291.258,150.303 393.761,205.78c102.503,55.477 232.506,39.227 303.758,25.476c71.252,-13.75 467.513,-16.828 515.014,-104.042c47.502,-87.213 27.501,-204.716 -30.001,-217.217c-57.501,-12.5 -143.754,20.001 -175.004,40.001c-31.251,20.001 -306.259,15.001 -420.012,18.751c-113.753,3.75 -346.26,-80.002 -392.511,-137.504c-46.251,-57.501 -81.252,-315.008 -38.751,-422.511c42.501,-107.503 28.751,-348.76 26.251,-486.264c-2.5,-137.503 -32.501,-372.043 -21.251,-423.528c11.251,-51.485 102.503,-117.737 125.004,-133.987c22.501,-16.25 -543.765,-41.251 -508.764,-15Z" style="fill:#fff;stroke:#fff;stroke-width:4.17px;"/><path d="M4055.15,2815c-16.001,25.601 -89.603,133.168 1.6,183.387c91.202,50.22 248.007,73.421 338.409,57.42c90.403,-16 368.01,-51.637 429.612,-57.42c61.602,-5.782 132.004,25.783 179.205,0c47.201,-25.782 180.005,-110.585 220.806,-100.184c40.801,10.4 196.805,101.166 256.007,100.184c59.202,-0.982 117.603,-18.218 133.604,0c16,18.219 93.602,85.421 127.203,73.42c33.601,-12 80.002,-138.403 56.802,-173.604c-23.201,-35.201 -65.602,-132.004 -144.804,-136.804c-79.203,-4.8 -218.106,-66.402 -358.26,-62.402c-140.154,4 -252.957,32.001 -358.56,51.202c-105.603,19.2 -272.808,24.8 -340.809,34.401c-68.002,9.6 -209.606,62.401 -264.808,56.001c-55.201,-6.4 -260.007,-51.201 -276.007,-25.601Z" style="fill:#fff;stroke:#fff;stroke-width:4.17px;"/><path d="M6490.38,1878.24c-12.001,40.802 -8.801,129.604 42.401,179.205c51.201,49.602 252.007,140.804 318.409,130.404c66.401,-10.4 124.803,-77.602 158.404,-86.402c33.601,-8.801 223.206,8 372.81,-1.601c149.604,-9.6 257.607,-9.6 275.208,-70.401c17.6,-60.802 16.8,-160.805 -57.602,-166.405c-74.402,-5.6 -336.009,18.4 -382.41,20.001c-46.402,1.6 -219.207,4 -316.009,27.2c-96.803,23.201 -230.406,-29.601 -268.807,-55.201c-38.401,-25.601 -130.404,-17.601 -142.404,23.2Z" style="fill:#fff;stroke:#fff;stroke-width:4.17px;"/><path d="M6256.73,2536.28c-4.8,45.601 9.6,192.005 155.204,201.605c145.604,9.601 506.414,-7.2 553.615,-9.6c47.202,-2.4 614.417,-44.801 646.418,-55.201c32.001,-10.401 40.801,18.4 35.201,48.801c-5.6,30.401 -64.016,408.014 -196.819,580.819c-132.804,172.805 -415.211,340.009 -492.813,345.609c-77.603,5.6 -207.206,-58.401 -249.607,-43.201c-42.401,15.201 -24.801,99.203 56.801,140.804c81.602,41.601 179.205,58.402 266.408,56.001c87.202,-2.4 354.409,-42.401 471.212,-205.605c116.804,-163.205 130.187,-256.007 164.696,-295.208c34.51,-39.201 105.712,-132.004 119.312,-197.606c13.6,-65.601 36.001,-290.407 50.401,-318.408c14.401,-28.001 40.001,-101.603 60.002,-129.604c20.001,-28.001 84.802,-79.202 70.402,-111.203c-14.4,-32.001 -85.82,-144.004 -300.117,-109.603c-214.297,34.401 -265.498,80.802 -416.702,77.602c-151.205,-3.2 -580.016,15.201 -647.218,-20c-67.202,-35.201 -200.006,-59.202 -248.007,-52.802c-48.001,6.401 -93.589,51.199 -98.389,96.8Z" style="fill:#fff;stroke:#fff;stroke-width:4.17px;"/><path d="M8607.74,2294.79c-23.2,43.201 0.8,142.404 48.802,189.605c48.001,47.201 59.201,112.813 52.801,214.411c-6.4,101.597 -33.601,357.604 -67.202,449.607c-33.601,92.002 -71.202,152.804 -180.005,172.805c-108.803,20 -304.008,10.4 -352.009,7.2c-48.001,-3.2 -59.202,18.4 -28.801,88.802c30.401,70.402 168.005,135.204 265.607,108.003c97.603,-27.201 129.604,-32.001 176.005,-35.201c46.401,-3.2 139.204,-45.601 189.605,-120.803c50.402,-75.202 170.405,-276.008 171.205,-345.61c0.8,-69.601 2.4,-183.205 17.6,-234.406c15.201,-51.201 32.801,-306.831 16.001,-361.021c-16.801,-54.19 -135.204,-106.992 -162.405,-157.393c-27.2,-50.401 -124.003,-19.2 -147.204,24.001Z" style="fill:#fff;stroke:#fff;stroke-width:4.17px;"/><path d="M8955.77,1840.37c-19,42.54 -22,115.757 42.002,174.151c64.001,58.394 149.004,103.395 168.004,159.396c19.001,56.002 -2,404.011 2,601.017c4,197.005 -19,589.016 -37.001,708.019c-18,119.003 -31.001,234.006 -42.001,257.007c-11,23 39.001,120.003 102.003,114.003c63.001,-6 98.002,-79.002 143.004,-67.002c45.001,12 185.005,-23.001 346.009,-105.003c161.004,-82.002 323.009,-152.004 362.01,-235.006c39.001,-83.002 151.004,-397.011 151.004,-441.012c-0,-44.001 -35.001,-192.005 -70.002,-172.005c-35.001,20.001 -32.001,105.003 -37.001,165.005c-5,60.001 -35.001,170.004 -134.004,258.007c-99.002,88.002 -213.005,163.004 -336.009,205.005c-123.003,42.001 -299.008,77.241 -312.008,69.622c-13.001,-7.62 -14.001,-70.622 -0,-117.623c14,-47.001 75.002,-333.009 71.002,-459.012c-4,-126.004 11,-707.02 2,-817.023c-9,-110.003 -34.001,-130.003 -66.002,-169.004c-32.001,-39.001 -140.004,-90.079 -191.005,-128.542c-51.002,-38.463 -145.004,-42.539 -164.005,0Z" style="fill:#fff;stroke:#fff;stroke-width:4.17px;"/><path d="M10736.6,2014.52c-11.719,44.686 -54.689,99.528 72.268,230.314c126.956,130.787 275.398,253.837 443.371,230.398c167.973,-23.438 638.689,-52.735 732.442,-74.22c93.752,-21.485 326.18,6.013 369.15,-156.178c42.97,-162.19 -101.565,-324.304 -162.114,-328.21c-60.548,-3.907 5.86,97.659 5.86,152.348c-0,54.689 -25.391,54.689 -113.284,72.267c-87.893,17.579 -685.566,109.531 -792.99,103.595c-107.425,-5.936 -154.302,-4.825 -207.037,-56.163c-52.736,-51.338 -119.144,-134.85 -177.739,-174.151c-58.596,-39.301 -158.208,-44.686 -169.927,-0Z" style="fill:#fff;stroke:#fff;stroke-width:4.17px;"/><path d="M11429.7,1319.73c-15,41.251 -41.251,136.253 -13.75,205.005c27.501,68.752 136.254,190.005 165.005,225.006c28.75,35.001 37.5,73.533 43.751,166.77c6.25,93.237 14.341,484.498 -83.77,840.757c-98.11,356.26 -254.364,754.708 -273.115,803.147c-18.75,48.439 -178.13,198.443 -343.759,206.255c-165.63,7.813 -284.383,-29.688 -340.634,-56.251c-56.252,-26.563 -84.377,-6.25 -68.752,60.939c15.625,67.189 117.191,173.442 185.942,190.63c68.752,17.188 298.446,-12.833 390.636,-49.386c92.19,-36.554 312.508,-155.307 390.635,-313.123c78.128,-157.817 184.38,-523.796 253.132,-767.381c68.752,-243.584 65.627,-332.988 143.754,-403.914c78.127,-70.926 101.565,-231.434 73.44,-230.87c-28.126,0.564 -100.003,0 -100.003,0c-0,0 45.314,-265.068 20.313,-365.07c-25.001,-100.003 -87.502,-226.569 -185.942,-340.635c-98.441,-114.065 -114.725,-153.129 -145.647,-167.192c-30.921,-14.062 -111.236,-4.687 -111.236,-4.687" style="fill:#fff;stroke:#fff;stroke-width:4.17px;"/><path d="M14022.8,1194.54c3.751,47.501 42.502,153.754 87.503,192.505c45.001,38.751 210.005,91.253 220.006,130.004c10,38.751 -25.001,31.25 -57.502,55.001c-32.501,23.751 -178.755,168.754 -197.505,203.755c-18.751,35.001 7.5,165.005 7.5,165.005c0,-0 146.254,-12.5 185.005,-70.002c38.751,-57.502 113.753,-145.004 166.254,-146.254c52.502,-1.25 260.008,33.751 330.009,-53.751c70.002,-87.503 71.252,-143.754 33.751,-180.005c-37.501,-36.251 -86.252,-7.5 -173.755,-70.002c-87.502,-62.502 -286.257,-153.754 -351.259,-210.006c-65.002,-56.251 -253.757,-63.751 -250.007,-16.25Z" style="fill:#fff;stroke:#fff;stroke-width:4.17px;"/><path d="M12681.6,1920.43c-7.5,72.502 -28.751,151.254 71.252,187.505c100.003,36.251 251.257,101.253 290.008,232.506c38.751,131.254 49.2,345.01 18.35,377.511c-30.85,32.5 -62.101,55.001 -42.101,107.502c20.001,52.502 77.502,105.003 122.504,96.253c45.001,-8.75 146.254,-112.503 140.003,-302.508c-6.25,-190.005 -2.5,-476.263 -156.254,-590.016c-153.754,-113.753 -347.509,-213.755 -380.01,-198.755c-32.501,15 -56.252,17.5 -63.752,90.002Z" style="fill:#fff;stroke:#fff;stroke-width:4.17px;"/><path d="M13153.4,2117.25c73.752,38.751 350.009,-17.501 378.76,-148.754c28.751,-131.254 160.004,-62.502 186.255,-62.502c26.25,0 48.751,55.002 88.752,55.002c40.001,-0 67.502,-63.752 133.754,-86.253c66.251,-22.5 386.26,-33.75 558.764,0c172.505,33.751 557.515,148.754 615.017,157.505c57.501,8.75 180.004,53.751 201.255,98.752c21.251,45.001 7.501,175.005 -102.503,210.006c-110.003,35.001 -112.502,-9.169 -182.504,34.792c-70.002,43.96 -356.26,253.965 -430.012,261.466c-73.752,7.5 -68.752,-30.001 -16.25,-92.503c52.501,-62.501 237.865,-246.256 237.685,-293.758c-0.179,-47.501 -358.939,-185.004 -620.195,-148.753c-261.257,36.25 -526.264,57.501 -586.266,133.753c-60.002,76.252 -35.001,308.758 -80.002,336.259c-45.001,27.501 -177.505,-12.5 -272.507,-75.002c-95.003,-62.502 -183.755,-418.761 -110.003,-380.01Z" style="fill:#fff;stroke:#fff;stroke-width:4.17px;"/><path d="M13685.5,2557.22c-50.002,21.251 -170.005,12.501 -185.005,-38.751c-15,-51.251 50.001,-207.505 138.754,-228.756c88.752,-21.25 557.515,-86.252 715.019,-62.501c157.504,23.75 281.257,145.004 208.755,205.005c-72.502,60.002 -366.26,203.756 -378.76,278.758c-12.5,75.002 -161.488,176.254 -161.488,176.254c0,0 -112.269,-66.252 -76.018,-125.003c36.251,-58.752 183.755,-248.757 180.004,-271.257c-3.75,-22.501 -238.756,-22.501 -326.258,2.5c-87.502,25 -65.002,42.501 -115.003,63.751Z" style="fill:#fff;stroke:#fff;stroke-width:4.17px;"/><path d="M13148.1,3340.48c28.125,76.564 104.69,182.817 184.38,157.816c79.689,-25 279.694,-150.004 423.448,-203.13c143.754,-53.126 521.889,-132.816 703.144,-128.128c181.255,4.687 407.823,28.125 471.887,68.751c64.064,40.626 129.691,85.94 196.88,121.879c67.19,35.938 197.731,29.688 196.524,-84.378c-1.206,-114.065 -63.708,-232.818 -193.399,-231.256c-129.69,1.563 -81.252,18.751 -192.192,-17.188c-110.94,-35.938 -359.385,-68.752 -623.454,-46.876c-264.07,21.876 -698.026,100.003 -816.994,153.129c-118.968,53.126 -215.846,53.127 -268.972,82.815c-53.127,29.688 -109.378,50.001 -81.252,126.566Z" style="fill:#fff;stroke:#fff;stroke-width:4.17px;"/><path d="M13926.2,2743.59c-82.815,17.188 -104.69,34.376 -115.628,96.877c-10.938,62.502 -29.688,78.095 59.377,130.456c89.065,52.362 87.502,55.487 90.627,96.113c3.125,40.626 125.003,70.314 185.943,114.065c60.939,43.751 87.466,117.191 85.921,282.82c-1.544,165.63 -34.358,393.761 -92.172,415.636c-57.814,21.876 -254.694,-204.693 -309.383,-265.632c-54.689,-60.939 -114.065,-64.064 -68.752,70.315c45.314,134.378 187.505,287.507 207.818,364.072c20.313,76.564 -5.848,135.941 71.297,162.504c77.145,26.563 227.149,14.063 264.65,-59.377c37.501,-73.439 29.688,-192.192 57.814,-268.757c28.125,-76.564 170.317,-468.96 148.441,-646.21c-21.875,-177.249 -176.603,-336.628 -279.713,-403.817c-103.11,-67.19 -306.24,-89.065 -306.24,-89.065" style="fill:#fff;stroke:#fff;stroke-width:4.17px;"/></g><g transform="matrix(769.659,0,0,769.659,5267.71,1097.06)"><path d="M0.236,-0.627l0.395,0l0.05,-0.064c0,-0 0.005,0.004 0.015,0.013c0.011,0.008 0.023,0.018 0.037,0.03c0.015,0.011 0.028,0.022 0.039,0.033c-0.003,0.011 -0.012,0.016 -0.027,0.016l-0.501,0l-0.008,-0.028Zm-0.016,0.465l0.433,-0l0.049,-0.065c0,-0 0.005,0.004 0.015,0.012c0.011,0.009 0.023,0.019 0.037,0.031c0.015,0.012 0.028,0.023 0.039,0.034c-0.003,0.011 -0.012,0.016 -0.027,0.016l-0.538,-0l-0.008,-0.028Zm0.055,-0.254l0.338,-0l0.047,-0.062c-0,-0 0.005,0.004 0.015,0.012c0.01,0.009 0.022,0.019 0.035,0.03c0.013,0.011 0.025,0.022 0.036,0.033c-0.003,0.011 -0.011,0.016 -0.026,0.016l-0.437,-0l-0.008,-0.029Zm0.173,-0.211l0.088,-0l-0,0.482l-0.088,-0l-0,-0.482Zm0.143,0.263c0.033,0.009 0.059,0.019 0.078,0.031c0.019,0.013 0.032,0.026 0.039,0.039c0.008,0.013 0.011,0.026 0.01,0.037c-0.001,0.012 -0.006,0.022 -0.013,0.029c-0.007,0.007 -0.015,0.011 -0.026,0.011c-0.011,0.001 -0.022,-0.004 -0.033,-0.013c-0.002,-0.015 -0.006,-0.03 -0.013,-0.045c-0.007,-0.015 -0.015,-0.03 -0.024,-0.045c-0.009,-0.015 -0.019,-0.027 -0.028,-0.038l0.01,-0.006Zm-0.442,0.343l0.704,-0l0,0.029l-0.704,-0l-0,-0.029Zm0.665,-0.758l-0.01,-0l0.049,-0.054l0.099,0.079c-0.003,0.004 -0.009,0.008 -0.016,0.011c-0.007,0.004 -0.016,0.007 -0.026,0.01l0,0.779c0,0.003 -0.004,0.008 -0.013,0.013c-0.009,0.005 -0.019,0.01 -0.032,0.014c-0.013,0.004 -0.025,0.006 -0.037,0.006l-0.014,-0l0,-0.858Zm-0.725,0.863l0,-0.907l0.103,0.043l0.658,0l0,0.03l-0.667,-0l0,0.798c0,0.004 -0.004,0.009 -0.011,0.014c-0.007,0.006 -0.017,0.011 -0.028,0.015c-0.011,0.005 -0.024,0.007 -0.039,0.007l-0.016,-0Z" style="fill:#fff;fill-rule:nonzero;"/></g><g transform="matrix(769.659,0,0,769.659,6197.46,1097.06)"><path d="M0.641,-0.839l0.132,0.014c-0.001,0.007 -0.004,0.012 -0.008,0.017c-0.005,0.005 -0.015,0.009 -0.028,0.011c-0.001,0.068 -0,0.136 0.003,0.204c0.003,0.069 0.009,0.135 0.019,0.199c0.01,0.064 0.025,0.123 0.045,0.177c0.02,0.055 0.046,0.102 0.078,0.142c0.006,0.009 0.011,0.013 0.014,0.012c0.004,0 0.008,-0.005 0.013,-0.014c0.007,-0.013 0.015,-0.03 0.024,-0.052c0.009,-0.021 0.017,-0.042 0.024,-0.062l0.011,0.002l-0.02,0.165c0.013,0.028 0.021,0.05 0.024,0.065c0.003,0.016 0,0.027 -0.007,0.033c-0.011,0.008 -0.023,0.012 -0.036,0.011c-0.013,0 -0.026,-0.003 -0.039,-0.01c-0.013,-0.007 -0.026,-0.015 -0.038,-0.026c-0.012,-0.011 -0.022,-0.022 -0.031,-0.033c-0.038,-0.051 -0.069,-0.109 -0.092,-0.172c-0.024,-0.063 -0.042,-0.132 -0.055,-0.205c-0.013,-0.073 -0.021,-0.149 -0.026,-0.23c-0.005,-0.08 -0.007,-0.163 -0.007,-0.248Zm0.218,0.34l0.117,0.05c-0.003,0.006 -0.007,0.01 -0.013,0.013c-0.006,0.003 -0.016,0.003 -0.029,0.002c-0.019,0.051 -0.042,0.101 -0.07,0.15c-0.029,0.05 -0.063,0.097 -0.103,0.142c-0.04,0.045 -0.087,0.086 -0.14,0.123c-0.054,0.037 -0.116,0.068 -0.185,0.094l-0.009,-0.013c0.081,-0.041 0.15,-0.092 0.208,-0.151c0.057,-0.059 0.105,-0.124 0.142,-0.195c0.037,-0.071 0.064,-0.142 0.082,-0.215Zm-0.073,-0.311c0.034,-0.001 0.061,0.002 0.082,0.009c0.021,0.007 0.036,0.015 0.046,0.026c0.01,0.011 0.016,0.022 0.017,0.033c0.001,0.011 -0.001,0.021 -0.007,0.03c-0.006,0.009 -0.014,0.014 -0.025,0.017c-0.011,0.003 -0.023,0 -0.036,-0.007c-0.005,-0.019 -0.016,-0.037 -0.033,-0.056c-0.017,-0.019 -0.034,-0.033 -0.052,-0.043l0.008,-0.009Zm-0.39,0.177l0.436,-0l0.051,-0.064c0,-0 0.006,0.004 0.017,0.012c0.011,0.009 0.023,0.019 0.038,0.03c0.015,0.011 0.028,0.023 0.04,0.034c-0.003,0.011 -0.012,0.016 -0.027,0.016l-0.547,-0l-0.008,-0.028Zm0,0.268l0.19,-0l0.036,-0.056c0,-0 0.028,0.028 0.039,0.038c0.01,0.011 0.019,0.021 0.027,0.03c-0.003,0.011 -0.011,0.016 -0.025,0.016l-0.259,-0l-0.008,-0.028Zm0.088,-0.177l0.112,0.012c-0.001,0.006 -0.003,0.011 -0.008,0.015c-0.005,0.004 -0.012,0.007 -0.023,0.009l0,0.401c0,0.003 -0.003,0.006 -0.01,0.009c-0.007,0.004 -0.015,0.007 -0.025,0.01c-0.01,0.003 -0.02,0.005 -0.031,0.005l-0.015,-0l0,-0.461Zm-0.335,0.379l0.114,0.054c-0.003,0.005 -0.007,0.008 -0.012,0.011c-0.005,0.003 -0.014,0.003 -0.025,0.002c-0.019,0.031 -0.044,0.063 -0.075,0.096c-0.031,0.033 -0.066,0.061 -0.105,0.084l-0.01,-0.011c0.018,-0.022 0.034,-0.047 0.049,-0.075c0.015,-0.027 0.028,-0.055 0.039,-0.084c0.011,-0.028 0.02,-0.054 0.025,-0.077Zm0.11,0.006c0.038,0.014 0.068,0.03 0.09,0.047c0.022,0.017 0.038,0.035 0.047,0.053c0.009,0.018 0.012,0.034 0.011,0.049c-0.002,0.015 -0.007,0.028 -0.015,0.037c-0.009,0.009 -0.019,0.014 -0.032,0.014c-0.013,0.001 -0.027,-0.005 -0.04,-0.016c-0.002,-0.02 -0.007,-0.041 -0.014,-0.062c-0.007,-0.021 -0.016,-0.042 -0.026,-0.063c-0.011,-0.02 -0.021,-0.038 -0.032,-0.053l0.011,-0.006Zm-0.173,0.019l0,-0.679l0.098,0.04l0.111,-0l0.044,-0.054l0.091,0.071c-0.003,0.005 -0.008,0.009 -0.015,0.012c-0.007,0.003 -0.015,0.006 -0.026,0.008l0,0.561c0,0.003 -0.007,0.007 -0.021,0.014c-0.015,0.007 -0.033,0.011 -0.054,0.011l-0.015,-0l0,-0.595l-0.127,-0l0,0.586c0,0.003 -0.006,0.008 -0.019,0.015c-0.013,0.007 -0.031,0.01 -0.053,0.01l-0.014,-0Zm0.048,-0.461l0.216,-0l0,0.029l-0.216,-0l0,-0.029Zm0,0.181l0.216,-0l0,0.029l-0.216,-0l0,-0.029Zm0,0.185l0.216,-0l0,0.029l-0.216,-0l0,-0.029Z" style="fill:#fff;fill-rule:nonzero;"/></g><g transform="matrix(769.659,0,0,769.659,7127.21,1097.06)"><path d="M0.113,-0.833c0.041,0.005 0.075,0.013 0.099,0.024c0.025,0.012 0.044,0.025 0.055,0.039c0.012,0.015 0.018,0.029 0.019,0.043c0.001,0.015 -0.003,0.027 -0.01,0.036c-0.007,0.01 -0.016,0.016 -0.029,0.018c-0.013,0.003 -0.027,-0 -0.042,-0.009c-0.005,-0.017 -0.013,-0.035 -0.024,-0.053c-0.011,-0.017 -0.024,-0.034 -0.038,-0.05c-0.013,-0.015 -0.026,-0.029 -0.039,-0.04l0.009,-0.008Zm-0.077,0.219c0.04,0.005 0.072,0.014 0.095,0.025c0.023,0.012 0.04,0.025 0.05,0.039c0.011,0.014 0.016,0.028 0.017,0.041c-0,0.013 -0.004,0.024 -0.012,0.033c-0.007,0.009 -0.017,0.015 -0.029,0.016c-0.013,0.001 -0.026,-0.003 -0.04,-0.012c-0.003,-0.016 -0.01,-0.032 -0.019,-0.049c-0.01,-0.017 -0.021,-0.032 -0.033,-0.047c-0.012,-0.015 -0.024,-0.027 -0.037,-0.038l0.008,-0.008Zm0.058,0.404c0.007,-0 0.012,-0.001 0.015,-0.003c0.003,-0.001 0.007,-0.007 0.012,-0.018c0.003,-0.006 0.007,-0.012 0.01,-0.018c0.003,-0.006 0.006,-0.014 0.011,-0.024c0.004,-0.01 0.01,-0.024 0.018,-0.042c0.008,-0.019 0.019,-0.044 0.032,-0.075c0.013,-0.031 0.03,-0.071 0.05,-0.12c0.02,-0.049 0.045,-0.108 0.074,-0.178l0.017,0.005c-0.008,0.025 -0.017,0.054 -0.027,0.087c-0.01,0.033 -0.02,0.066 -0.031,0.1c-0.01,0.034 -0.02,0.067 -0.029,0.098c-0.009,0.032 -0.017,0.06 -0.024,0.083c-0.007,0.023 -0.011,0.04 -0.014,0.051c-0.004,0.017 -0.008,0.033 -0.011,0.05c-0.003,0.016 -0.004,0.03 -0.004,0.043c0.001,0.013 0.003,0.025 0.007,0.037c0.003,0.012 0.007,0.025 0.012,0.038c0.005,0.013 0.008,0.028 0.011,0.045c0.003,0.017 0.005,0.036 0.004,0.057c-0.001,0.023 -0.008,0.042 -0.021,0.057c-0.013,0.014 -0.029,0.021 -0.049,0.021c-0.011,0 -0.02,-0.004 -0.029,-0.012c-0.008,-0.009 -0.013,-0.022 -0.016,-0.039c0.005,-0.035 0.008,-0.067 0.009,-0.097c0.001,-0.029 0,-0.054 -0.004,-0.074c-0.003,-0.019 -0.009,-0.031 -0.017,-0.036c-0.006,-0.005 -0.013,-0.009 -0.021,-0.011c-0.008,-0.002 -0.018,-0.003 -0.029,-0.004l-0,-0.021l0.044,0Zm0.404,-0.634l0.133,0.013c-0.001,0.007 -0.003,0.013 -0.008,0.018c-0.005,0.005 -0.014,0.009 -0.027,0.011c-0.001,0.081 0.001,0.16 0.007,0.237c0.006,0.077 0.018,0.148 0.036,0.215c0.017,0.066 0.043,0.125 0.077,0.177c0.034,0.051 0.079,0.093 0.134,0.124c0.009,0.006 0.015,0.009 0.021,0.009c0.005,-0.001 0.01,-0.006 0.015,-0.015c0.007,-0.013 0.016,-0.032 0.027,-0.055c0.012,-0.023 0.021,-0.046 0.029,-0.068l0.012,0.002l-0.02,0.16c0.019,0.023 0.03,0.04 0.033,0.052c0.003,0.012 0.002,0.022 -0.004,0.03c-0.008,0.01 -0.018,0.016 -0.031,0.019c-0.013,0.002 -0.027,0.001 -0.041,-0.002c-0.015,-0.003 -0.031,-0.009 -0.046,-0.016c-0.015,-0.007 -0.03,-0.015 -0.043,-0.024c-0.064,-0.04 -0.116,-0.09 -0.156,-0.15c-0.04,-0.061 -0.071,-0.129 -0.092,-0.206c-0.021,-0.077 -0.036,-0.16 -0.044,-0.249c-0.008,-0.089 -0.012,-0.183 -0.012,-0.282Zm0.155,0.025c0.039,-0.001 0.07,0.002 0.093,0.01c0.023,0.007 0.041,0.017 0.052,0.028c0.011,0.011 0.017,0.023 0.018,0.035c0.001,0.013 -0.002,0.024 -0.009,0.033c-0.007,0.009 -0.016,0.015 -0.028,0.018c-0.013,0.003 -0.026,0.001 -0.041,-0.007c-0.007,-0.019 -0.02,-0.039 -0.038,-0.06c-0.019,-0.021 -0.037,-0.037 -0.055,-0.05l0.008,-0.007Zm-0.332,0.197l0.453,-0.041l0.052,-0.078c0,0 0.029,0.018 0.041,0.025c0.012,0.007 0.025,0.016 0.038,0.025c0.013,0.008 0.025,0.017 0.036,0.024c-0.002,0.012 -0.011,0.019 -0.026,0.02l-0.584,0.052l-0.01,-0.027Zm0.007,0.147l0.438,-0.042l0.052,-0.078c0,0 0.004,0.002 0.011,0.007c0.008,0.005 0.018,0.011 0.029,0.018c0.012,0.007 0.025,0.015 0.038,0.023c0.013,0.009 0.025,0.017 0.036,0.025c-0.001,0.012 -0.01,0.019 -0.025,0.02l-0.568,0.055l-0.011,-0.028Zm-0.042,0.165l0.51,-0.054l0.052,-0.079c-0,-0 0.029,0.018 0.041,0.025c0.012,0.007 0.025,0.015 0.038,0.023c0.013,0.009 0.026,0.017 0.037,0.025c-0.002,0.011 -0.011,0.018 -0.026,0.019l-0.642,0.068l-0.01,-0.027Zm0.518,-0.02l0.119,0.071c-0.003,0.005 -0.008,0.008 -0.015,0.009c-0.006,0.002 -0.015,0.002 -0.028,-0.001c-0.056,0.064 -0.116,0.117 -0.179,0.16c-0.063,0.043 -0.13,0.077 -0.201,0.103c-0.071,0.027 -0.148,0.048 -0.23,0.065l-0.005,-0.017c0.073,-0.025 0.141,-0.054 0.206,-0.088c0.064,-0.033 0.124,-0.075 0.179,-0.124c0.056,-0.049 0.107,-0.108 0.154,-0.178Z" style="fill:#fff;fill-rule:nonzero;"/></g><g transform="matrix(769.659,0,0,769.659,8056.95,1097.06)"><path d="M0.211,-0.49l0.472,0l0,0.03l-0.463,-0l-0.009,-0.03Zm-0.168,0.233l0.751,0l0.06,-0.077c-0,0 0.004,0.003 0.011,0.009c0.007,0.005 0.017,0.013 0.028,0.022c0.012,0.009 0.024,0.019 0.036,0.029c0.013,0.011 0.024,0.021 0.035,0.03c-0.003,0.011 -0.012,0.016 -0.028,0.016l-0.885,-0l-0.008,-0.029Zm0.409,-0.105l0.134,0.012c-0.002,0.014 -0.013,0.023 -0.034,0.026l-0,0.284c-0,0.023 -0.003,0.044 -0.01,0.061c-0.007,0.017 -0.021,0.031 -0.042,0.042c-0.021,0.011 -0.053,0.018 -0.098,0.023c-0.003,-0.016 -0.006,-0.03 -0.011,-0.042c-0.004,-0.011 -0.011,-0.021 -0.02,-0.028c-0.011,-0.009 -0.024,-0.016 -0.041,-0.022c-0.016,-0.005 -0.039,-0.01 -0.07,-0.015l-0,-0.014c-0,-0 0.036,0.002 0.051,0.003c0.015,0.001 0.031,0.002 0.047,0.003c0.016,0.001 0.03,0.002 0.043,0.003c0.013,0.001 0.022,0.001 0.027,0.001c0.009,-0 0.016,-0.002 0.019,-0.005c0.003,-0.003 0.005,-0.008 0.005,-0.016l-0,-0.316Zm-0.293,-0.267l0.718,0l-0,0.03l-0.718,0l-0,-0.03Zm-0.018,-0.071l0.015,-0.001c0.018,0.043 0.027,0.081 0.027,0.114c-0,0.033 -0.006,0.061 -0.017,0.083c-0.011,0.022 -0.024,0.038 -0.04,0.049c-0.015,0.01 -0.032,0.014 -0.049,0.013c-0.017,-0.002 -0.029,-0.011 -0.035,-0.026c-0.006,-0.015 -0.006,-0.028 0.001,-0.04c0.007,-0.012 0.018,-0.021 0.031,-0.028c0.02,-0.013 0.037,-0.034 0.051,-0.064c0.015,-0.03 0.02,-0.063 0.016,-0.1Zm0.684,0.072l-0.011,0l0.058,-0.057l0.1,0.095c-0.004,0.005 -0.009,0.008 -0.015,0.009c-0.006,0.001 -0.014,0.002 -0.025,0.003c-0.012,0.011 -0.027,0.023 -0.046,0.036c-0.018,0.012 -0.037,0.024 -0.057,0.036c-0.019,0.012 -0.037,0.022 -0.054,0.03l-0.01,-0.007c0.007,-0.013 0.015,-0.028 0.022,-0.046c0.008,-0.017 0.015,-0.035 0.022,-0.053c0.007,-0.017 0.012,-0.033 0.016,-0.046Zm-0.627,-0.203c0.041,0.011 0.073,0.024 0.097,0.04c0.024,0.016 0.041,0.033 0.051,0.05c0.011,0.017 0.016,0.033 0.015,0.048c-0.001,0.015 -0.005,0.028 -0.014,0.038c-0.008,0.009 -0.019,0.015 -0.032,0.016c-0.013,0.001 -0.026,-0.004 -0.041,-0.015c-0.003,-0.019 -0.009,-0.039 -0.018,-0.06c-0.009,-0.021 -0.019,-0.041 -0.031,-0.06c-0.012,-0.019 -0.024,-0.036 -0.037,-0.05l0.01,-0.007Zm0.226,-0.015c0.039,0.014 0.07,0.03 0.092,0.048c0.022,0.017 0.037,0.035 0.045,0.052c0.008,0.018 0.011,0.035 0.008,0.05c-0.002,0.015 -0.008,0.027 -0.018,0.036c-0.009,0.009 -0.021,0.014 -0.035,0.013c-0.013,0 -0.027,-0.006 -0.041,-0.019c0,-0.02 -0.003,-0.04 -0.009,-0.061c-0.006,-0.021 -0.014,-0.041 -0.023,-0.061c-0.009,-0.019 -0.019,-0.037 -0.03,-0.052l0.011,-0.006Zm0.298,0.002l0.132,0.048c-0.003,0.006 -0.007,0.01 -0.013,0.013c-0.007,0.003 -0.016,0.005 -0.027,0.004c-0.022,0.025 -0.05,0.053 -0.084,0.084c-0.034,0.031 -0.068,0.059 -0.102,0.083l-0.024,-0c0.015,-0.021 0.029,-0.046 0.044,-0.073c0.015,-0.027 0.028,-0.054 0.041,-0.082c0.013,-0.028 0.024,-0.054 0.033,-0.077Zm-0.071,0.355l-0.012,-0l0.057,-0.054l0.095,0.091c-0.003,0.004 -0.008,0.007 -0.015,0.008c-0.006,0.001 -0.015,0.002 -0.026,0.003c-0.019,0.012 -0.043,0.025 -0.071,0.039c-0.028,0.015 -0.056,0.028 -0.086,0.041c-0.028,0.013 -0.055,0.024 -0.08,0.033l-0.009,-0.009c0.015,-0.013 0.032,-0.029 0.051,-0.047c0.019,-0.018 0.037,-0.037 0.054,-0.056c0.017,-0.019 0.031,-0.035 0.042,-0.049Z" style="fill:#fff;fill-rule:nonzero;"/></g><g transform="matrix(769.659,0,0,769.659,8986.7,1097.06)"><path d="M0.28,-0.761l0.398,0l0,0.03l-0.398,0l0,-0.03Zm-0.049,0.293l-0,-0.333l0.112,0.041l-0.015,0l0,0.29c0,0.039 -0.002,0.079 -0.006,0.119c-0.003,0.041 -0.01,0.081 -0.021,0.121c-0.011,0.039 -0.026,0.078 -0.047,0.115c-0.021,0.037 -0.049,0.073 -0.083,0.107c-0.035,0.033 -0.078,0.064 -0.13,0.092l-0.01,-0.011c0.057,-0.05 0.1,-0.104 0.129,-0.161c0.029,-0.058 0.048,-0.119 0.057,-0.183c0.009,-0.064 0.014,-0.13 0.014,-0.197Zm0.393,-0.292l-0.012,0l0.05,-0.058l0.101,0.083c-0.003,0.005 -0.008,0.008 -0.015,0.011c-0.007,0.003 -0.016,0.006 -0.027,0.007l0,0.658c0,0.01 0.002,0.017 0.006,0.021c0.004,0.004 0.013,0.006 0.026,0.006l0.09,0c0.009,0 0.017,-0 0.022,-0.001c0.004,-0.001 0.008,-0.002 0.011,-0.003c0.003,-0.002 0.006,-0.005 0.009,-0.01c0.003,-0.005 0.007,-0.016 0.011,-0.031c0.004,-0.015 0.008,-0.033 0.013,-0.053c0.005,-0.02 0.01,-0.04 0.015,-0.06l0.011,0l0.004,0.151c0.014,0.006 0.023,0.012 0.027,0.018c0.005,0.006 0.007,0.014 0.007,0.024c-0,0.013 -0.005,0.025 -0.015,0.034c-0.01,0.009 -0.027,0.015 -0.052,0.02c-0.025,0.004 -0.059,0.006 -0.103,0.006l-0.075,0c-0.027,0 -0.049,-0.003 -0.064,-0.008c-0.015,-0.006 -0.026,-0.016 -0.032,-0.03c-0.005,-0.014 -0.008,-0.033 -0.008,-0.056l-0,-0.729Zm-0.256,0.229c0.05,0.016 0.09,0.035 0.12,0.056c0.03,0.021 0.052,0.043 0.065,0.065c0.014,0.021 0.021,0.041 0.022,0.06c0.001,0.019 -0.002,0.034 -0.011,0.046c-0.008,0.011 -0.019,0.018 -0.034,0.019c-0.014,0.001 -0.03,-0.004 -0.047,-0.017c-0.004,-0.026 -0.013,-0.052 -0.026,-0.079c-0.013,-0.027 -0.028,-0.052 -0.046,-0.077c-0.018,-0.025 -0.036,-0.047 -0.053,-0.066l0.01,-0.007Z" style="fill:#fff;fill-rule:nonzero;"/></g><g transform="matrix(769.659,0,0,769.659,9916.45,1097.06)"><path d="M0.514,-0.784c0.005,0.094 0.016,0.18 0.032,0.258c0.017,0.078 0.042,0.149 0.076,0.212c0.033,0.063 0.078,0.118 0.135,0.167c0.057,0.048 0.128,0.089 0.214,0.124l-0.002,0.012c-0.025,0.004 -0.045,0.014 -0.062,0.029c-0.016,0.015 -0.027,0.035 -0.034,0.062c-0.076,-0.041 -0.138,-0.091 -0.187,-0.148c-0.048,-0.057 -0.085,-0.122 -0.111,-0.194c-0.027,-0.073 -0.046,-0.153 -0.057,-0.24c-0.011,-0.087 -0.019,-0.18 -0.022,-0.28l0.018,-0.002Zm0,0c-0.001,0.05 -0.003,0.101 -0.006,0.153c-0.003,0.052 -0.008,0.104 -0.017,0.156c-0.009,0.052 -0.022,0.103 -0.041,0.153c-0.019,0.051 -0.046,0.1 -0.079,0.147c-0.033,0.048 -0.076,0.094 -0.129,0.137c-0.053,0.043 -0.118,0.084 -0.194,0.122l-0.012,-0.016c0.076,-0.051 0.138,-0.105 0.185,-0.162c0.047,-0.056 0.084,-0.114 0.111,-0.174c0.026,-0.06 0.045,-0.121 0.056,-0.183c0.011,-0.062 0.017,-0.125 0.019,-0.188c0.002,-0.062 0.003,-0.125 0.003,-0.187l0.14,0.014c-0.001,0.007 -0.004,0.012 -0.009,0.018c-0.005,0.005 -0.014,0.008 -0.027,0.01Z" style="fill:#fff;fill-rule:nonzero;"/></g><g transform="matrix(769.659,0,0,769.659,10686.1,1097.06)"></g></svg>