<?xml version="1.0" encoding="UTF-8" standalone="no"?><!DOCTYPE svg PUBLIC "-//W3C//DTD SVG 1.1//EN" "http://www.w3.org/Graphics/SVG/1.1/DTD/svg11.dtd"><svg width="100%" height="100%" viewBox="0 0 256 256" version="1.1" xmlns="http://www.w3.org/2000/svg" xmlns:xlink="http://www.w3.org/1999/xlink" xml:space="preserve" xmlns:serif="http://www.serif.com/" style="fill-rule:evenodd;clip-rule:evenodd;stroke-linejoin:round;stroke-miterlimit:2;"><g><path d="M128,70.783c31.579,0 57.217,25.638 57.217,57.217c-0,31.579 -25.638,57.217 -57.217,57.217c-31.579,-0 -57.217,-25.638 -57.217,-57.217c0,-31.579 25.638,-57.217 57.217,-57.217Zm-0,7.217c-27.596,0 -50,22.404 -50,50c-0,27.596 22.404,50 50,50c27.596,0 50,-22.404 50,-50c-0,-27.596 -22.404,-50 -50,-50Z"/><path d="M79.189,138.879c-10.417,4.186 -22.272,16.003 -35.513,35.175l41.128,-71.237c8.677,-14.84 24.78,-24.817 43.196,-24.817c18.416,0 34.519,9.977 43.196,24.817l41.128,71.237c-13.241,-19.172 -25.096,-30.989 -35.513,-35.175c-16.396,-6.588 -29.23,5.726 -38.301,38.012c-4.394,15.642 -7.905,35.971 -10.51,61.109c-2.605,-25.138 -6.116,-45.467 -10.51,-61.109c-9.071,-32.286 -21.905,-44.6 -38.301,-38.012Z" style="fill:url(#_Linear1);"/><path d="M138,128c0,1.38 -1.12,2.5 -2.5,2.5l-15,0c-1.38,0 -2.5,-1.12 -2.5,-2.5c0,-1.38 1.12,-2.5 2.5,-2.5l15,0c1.38,0 2.5,1.12 2.5,2.5Z"/><path d="M138,234.5c-0,1.38 -1.12,2.5 -2.5,2.5l-15,0c-1.38,0 -2.5,-1.12 -2.5,-2.5c-0,-1.38 1.12,-2.5 2.5,-2.5l15,0c1.38,0 2.5,1.12 2.5,2.5Z"/><path d="M128,127c1.38,0 2.5,1.12 2.5,2.5l0,103.591c0,1.38 -1.12,2.5 -2.5,2.5c-1.38,0 -2.5,-1.12 -2.5,-2.5l0,-103.591c0,-1.38 1.12,-2.5 2.5,-2.5Z"/></g><defs><linearGradient id="_Linear1" x1="0" y1="0" x2="1" y2="0" gradientUnits="userSpaceOnUse" gradientTransform="matrix(-36.9347,4.5232e-15,-4.5232e-15,-36.9347,145.317,116.796)"><stop offset="0" style="stop-color:#efbca5;stop-opacity:1"/><stop offset="1" style="stop-color:#2f3147;stop-opacity:1"/></linearGradient></defs></svg>