<?xml version="1.0" encoding="UTF-8" standalone="no"?>
<!DOCTYPE svg PUBLIC "-//W3C//DTD SVG 1.1//EN" "http://www.w3.org/Graphics/SVG/1.1/DTD/svg11.dtd">
<svg width="100%" height="100%" viewBox="0 0 64 64" version="1.1" xmlns="http://www.w3.org/2000/svg" xmlns:xlink="http://www.w3.org/1999/xlink" xml:space="preserve" xmlns:serif="http://www.serif.com/" style="fill-rule:evenodd;clip-rule:evenodd;stroke-linejoin:round;stroke-miterlimit:2;">
    <g transform="matrix(0.906516,0.906516,-0.906516,0.906516,20.742,-12.3307)">
        <path d="M10.099,21.641C8.305,21.641 6.849,20.185 6.849,18.391C6.849,16.597 8.305,15.141 10.099,15.141L51.035,15.141C52.829,15.141 54.285,16.597 54.285,18.391C54.285,20.185 52.829,21.641 51.035,21.641L10.099,21.641Z" style="fill:white;"/>
    </g>
    <g transform="matrix(0.906516,-0.906516,0.906516,0.906516,-12.6013,43.0881)">
        <path d="M10.099,21.641C8.305,21.641 6.849,20.185 6.849,18.391C6.849,16.597 8.305,15.141 10.099,15.141L51.035,15.141C52.829,15.141 54.285,16.597 54.285,18.391C54.285,20.185 52.829,21.641 51.035,21.641L10.099,21.641Z" style="fill:white;"/>
    </g>
</svg>
